<svg width="20" height="20" viewBox="0 0 20 20" fill="none" xmlns="http://www.w3.org/2000/svg">
<path fill-rule="evenodd" clip-rule="evenodd" d="M9.99574 0.0129032C9.02577 -0.000647012 8.06277 0.178698 7.1627 0.540518C6.26264 0.902338 5.44345 1.43942 4.75273 2.12055C4.06201 2.80169 3.51354 3.6133 3.13918 4.50822C2.76483 5.40315 2.57205 6.36355 2.57205 7.33362C2.57205 8.30369 2.76483 9.26409 3.13918 10.159C3.51354 11.0539 4.06201 11.8655 4.75273 12.5467C5.44345 13.2278 6.26264 13.7649 7.1627 14.1267C8.06277 14.4885 9.02577 14.6679 9.99574 14.6543C11.9375 14.6543 13.7997 13.883 15.1728 12.5099C16.5458 11.1369 17.3172 9.27467 17.3172 7.3329C17.3172 5.39114 16.5458 3.52891 15.1728 2.15587C13.7997 0.782837 11.9375 0.0129032 9.99574 0.0129032ZM10.2857 3.47433L11.2615 5.43719C11.2831 5.48671 11.3176 5.52959 11.3613 5.56146C11.4049 5.59333 11.4563 5.61306 11.51 5.61862L13.6757 5.94719C13.7378 5.95512 13.7962 5.98057 13.8443 6.02057C13.8923 6.06057 13.928 6.11345 13.947 6.173C13.9661 6.23254 13.9677 6.29629 13.9518 6.35675C13.9359 6.41722 13.9031 6.47188 13.8572 6.51433L12.26 8.03433C12.2363 8.07973 12.2238 8.13022 12.2238 8.18148C12.2238 8.23273 12.2363 8.28322 12.26 8.32862L12.5657 10.4829C12.5786 10.5449 12.5733 10.6094 12.5504 10.6684C12.5274 10.7275 12.4879 10.7787 12.4366 10.8158C12.3853 10.8529 12.3243 10.8745 12.2611 10.8777C12.1978 10.881 12.1349 10.8659 12.08 10.8343L10.1515 9.81433C10.1014 9.79164 10.0471 9.77991 9.99217 9.77991C9.93723 9.77991 9.88293 9.79164 9.83289 9.81433L7.90432 10.8343C7.84942 10.8659 7.78655 10.881 7.72329 10.8777C7.66002 10.8745 7.59905 10.8529 7.54773 10.8158C7.4964 10.7787 7.45691 10.7275 7.434 10.6684C7.41109 10.6094 7.40574 10.5449 7.4186 10.4829L7.78003 8.32862C7.79551 8.27866 7.7984 8.22564 7.78843 8.1743C7.77846 8.12295 7.75594 8.07487 7.72289 8.03433L6.12432 6.5029C6.08138 6.46003 6.05115 6.40611 6.03699 6.34711C6.02282 6.28812 6.02526 6.22635 6.04405 6.16865C6.06284 6.11096 6.09723 6.0596 6.14342 6.02026C6.18961 5.98091 6.2458 5.95513 6.30574 5.94576L8.47289 5.63005C8.52666 5.62448 8.578 5.60476 8.62167 5.57289C8.66533 5.54102 8.69977 5.49814 8.72146 5.44862L9.69717 3.48576C9.72315 3.43005 9.76423 3.38274 9.81574 3.34921C9.86726 3.31568 9.92715 3.29727 9.98861 3.29608C10.0501 3.29489 10.1106 3.31097 10.1634 3.34248C10.2162 3.37398 10.2591 3.41967 10.2872 3.47433H10.2857ZM17.5715 12.3858C16.3402 14.2308 14.4789 15.5639 12.3357 16.1358L14.3529 19.63C14.4235 19.7524 14.5287 19.8511 14.6554 19.9137C14.782 19.9762 14.9244 19.9998 15.0644 19.9814C15.2045 19.9631 15.336 19.9036 15.4422 19.8106C15.5485 19.7175 15.6248 19.595 15.6615 19.4586L16.39 16.7458L19.1015 17.4729C19.2379 17.5093 19.382 17.5045 19.5157 17.459C19.6494 17.4135 19.7666 17.3294 19.8525 17.2174C19.9384 17.1053 19.9892 16.9703 19.9984 16.8294C20.0076 16.6885 19.9749 16.5481 19.9043 16.4258L17.5715 12.3858ZM7.66289 16.1372C5.51952 15.5676 3.65716 14.2364 2.42432 12.3929L0.0957446 16.4258C0.0251699 16.5481 -0.00757469 16.6885 0.00164755 16.8294C0.0108698 16.9703 0.0616451 17.1053 0.147559 17.2174C0.233473 17.3294 0.35067 17.4135 0.484346 17.459C0.618021 17.5045 0.762177 17.5093 0.898602 17.4729L3.61146 16.7458L4.3386 19.4586C4.37527 19.595 4.45156 19.7175 4.55782 19.8106C4.66409 19.9036 4.79557 19.9631 4.93562 19.9814C5.07568 19.9998 5.21804 19.9762 5.34469 19.9137C5.47134 19.8511 5.57661 19.7524 5.64717 19.63L7.66289 16.1372Z" fill="currentColor"/>
</svg>
  