<svg width="24" height="24" viewBox="0 0 24 24" fill="none" xmlns="http://www.w3.org/2000/svg">
  <path
    d="M20.4 8.39998V11.52C19.1577 10.8854 17.7464 10.6607 16.3684 10.8782C14.9905 11.0957 13.717 11.7442 12.7306 12.7306C11.7442 13.717 11.0957 14.9905 10.8782 16.3684C10.6607 17.7463 10.8854 19.1577 11.52 20.4H6.6C5.80435 20.4 5.04129 20.0839 4.47868 19.5213C3.91607 18.9587 3.6 18.1956 3.6 17.4V8.39998H20.4ZM17.4 3.59998C18.1957 3.59998 18.9587 3.91605 19.5213 4.47866C20.0839 5.04126 20.4 5.80433 20.4 6.59998V7.19998H3.6V6.59998C3.6 5.80433 3.91607 5.04126 4.47868 4.47866C5.04129 3.91605 5.80435 3.59998 6.6 3.59998H17.4ZM22.8 17.4C22.8 18.8321 22.2311 20.2057 21.2184 21.2184C20.2057 22.231 18.8322 22.8 17.4 22.8C15.9678 22.8 14.5943 22.231 13.5816 21.2184C12.5689 20.2057 12 18.8321 12 17.4C12 15.9678 12.5689 14.5943 13.5816 13.5816C14.5943 12.5689 15.9678 12 17.4 12C18.8322 12 20.2057 12.5689 21.2184 13.5816C22.2311 14.5943 22.8 15.9678 22.8 17.4ZM17.4 18.2484L18.7752 19.6248C18.831 19.6806 18.8972 19.7248 18.9701 19.755C19.043 19.7852 19.1211 19.8007 19.2 19.8007C19.2789 19.8007 19.357 19.7852 19.4299 19.755C19.5028 19.7248 19.569 19.6806 19.6248 19.6248C19.6806 19.569 19.7248 19.5028 19.755 19.4299C19.7852 19.357 19.8008 19.2789 19.8008 19.2C19.8008 19.1211 19.7852 19.043 19.755 18.9701C19.7248 18.8972 19.6806 18.831 19.6248 18.7752L18.2484 17.4L19.6248 16.0248C19.7375 15.9121 19.8008 15.7593 19.8008 15.6C19.8008 15.4406 19.7375 15.2878 19.6248 15.1752C19.5121 15.0625 19.3593 14.9992 19.2 14.9992C19.0407 14.9992 18.8879 15.0625 18.7752 15.1752L17.4 16.5516L16.0248 15.1752C15.9121 15.0625 15.7593 14.9992 15.6 14.9992C15.4407 14.9992 15.2879 15.0625 15.1752 15.1752C15.0625 15.2878 14.9992 15.4406 14.9992 15.6C14.9992 15.7593 15.0625 15.9121 15.1752 16.0248L16.5516 17.4L15.1752 18.7752C15.1194 18.831 15.0752 18.8972 15.045 18.9701C15.0148 19.043 14.9992 19.1211 14.9992 19.2C14.9992 19.2789 15.0148 19.357 15.045 19.4299C15.0752 19.5028 15.1194 19.569 15.1752 19.6248C15.231 19.6806 15.2972 19.7248 15.3701 19.755C15.443 19.7852 15.5211 19.8007 15.6 19.8007C15.6789 19.8007 15.757 19.7852 15.8299 19.755C15.9028 19.7248 15.969 19.6806 16.0248 19.6248L17.4 18.2484Z"
    fill="currentColor" />
</svg>
  