<svg width="24" height="24" viewBox="0 0 24 24" fill="none" xmlns="http://www.w3.org/2000/svg">
<path fill-rule="evenodd" clip-rule="evenodd" d="M15.4932 6.93502C15.8053 7.20743 15.8374 7.68122 15.565 7.99325L7.70784 16.9933C7.56541 17.1564 7.35942 17.25 7.14285 17.25C6.92629 17.25 6.72029 17.1564 6.57786 16.9933L3.43501 13.3933C3.1626 13.0812 3.19472 12.6074 3.50675 12.335C3.81879 12.0626 4.29257 12.0947 4.56498 12.4068L7.14285 15.3596L14.435 7.00677C14.7074 6.69473 15.1812 6.66261 15.4932 6.93502Z" fill="currentColor"/>
<path fill-rule="evenodd" clip-rule="evenodd" d="M20.5174 7.01946C20.8174 7.30513 20.829 7.77986 20.5433 8.07981L11.9716 17.0798C11.8201 17.2389 11.6065 17.3235 11.3872 17.3114C11.1679 17.2993 10.9649 17.1917 10.8318 17.0169L10.4035 16.4544C10.1525 16.1249 10.2163 15.6543 10.5458 15.4034C10.8289 15.1878 11.2161 15.2044 11.4787 15.4223L19.4571 7.04531C19.7428 6.74537 20.2175 6.73379 20.5174 7.01946Z" fill="currentColor"/>
</svg>
