<svg width="24" height="24" viewBox="0 0 24 24" fill="none" xmlns="http://www.w3.org/2000/svg">
<path fill-rule="evenodd" clip-rule="evenodd" d="M11.9942 13.4085L17.6485 19.0631C17.837 19.2452 18.0895 19.346 18.3515 19.3437C18.6136 19.3414 18.8643 19.2363 19.0496 19.051C19.2349 18.8656 19.3401 18.6149 19.3423 18.3528C19.3446 18.0907 19.2439 17.8382 19.0618 17.6497L13.4075 11.995L19.0618 6.34038C19.2439 6.15185 19.3446 5.89935 19.3423 5.63726C19.3401 5.37518 19.2349 5.12447 19.0496 4.93914C18.8643 4.7538 18.6136 4.64868 18.3515 4.6464C18.0895 4.64412 17.837 4.74488 17.6485 4.92696L11.9942 10.5816L6.33995 4.92696C6.15059 4.74938 5.89957 4.65244 5.64002 4.65665C5.38046 4.66087 5.13272 4.76591 4.94923 4.94954C4.76574 5.13318 4.66088 5.38101 4.65685 5.64059C4.65282 5.90016 4.74993 6.15113 4.92763 6.34038L10.5809 11.995L4.92663 17.6497C4.83117 17.7419 4.75502 17.8522 4.70264 17.9742C4.65025 18.0961 4.62268 18.2273 4.62153 18.36C4.62037 18.4927 4.64566 18.6244 4.69592 18.7472C4.74618 18.8701 4.82039 18.9817 4.91424 19.0755C5.00809 19.1694 5.11969 19.2436 5.24252 19.2939C5.36536 19.3441 5.49698 19.3694 5.62969 19.3683C5.76241 19.3671 5.89356 19.3395 6.01551 19.2871C6.13745 19.2348 6.24775 19.1586 6.33995 19.0631L11.9942 13.4085Z" fill="currentColor"/>
</svg>
