<svg width="32" height="32" viewBox="0 0 32 32" fill="none" xmlns="http://www.w3.org/2000/svg">
  <path
    d="M10.3349 9.33342C10.3349 9.86385 10.1242 10.3726 9.74909 10.7476C9.37402 11.1227 8.86531 11.3334 8.33488 11.3334C7.80444 11.3334 7.29573 11.1227 6.92066 10.7476C6.54559 10.3726 6.33487 9.86385 6.33487 9.33342C6.33487 8.80298 6.54559 8.29427 6.92066 7.9192C7.29573 7.54413 7.80444 7.33342 8.33488 7.33342C8.86531 7.33342 9.37402 7.54413 9.74909 7.9192C10.1242 8.29427 10.3349 8.80298 10.3349 9.33342ZM6.25487 12.3361C6.34858 12.2306 6.46355 12.1461 6.59224 12.0882C6.72093 12.0302 6.86042 12.0002 7.00154 12.0001H8.92821C9.91754 12.0001 10.6882 12.8574 10.5855 13.8401L10.0122 19.2841C9.99302 19.4635 9.95366 19.6402 9.89488 19.8107L9.47088 21.0187L9.75487 21.3414C9.81552 21.4122 9.86662 21.4907 9.90687 21.5747L12.5735 27.2414C12.6335 27.3607 12.6689 27.4908 12.6777 27.624C12.6865 27.7572 12.6686 27.8909 12.625 28.017C12.5813 28.1432 12.5129 28.2593 12.4236 28.3586C12.3344 28.4579 12.2262 28.5383 12.1054 28.5951C11.9845 28.6519 11.8536 28.684 11.7202 28.6894C11.5868 28.6947 11.4537 28.6734 11.3287 28.6265C11.2037 28.5796 11.0893 28.5081 10.9924 28.4164C10.8955 28.3246 10.8179 28.2143 10.7642 28.0921L8.15621 22.5534L5.91621 19.9921C5.74381 19.7962 5.65481 19.5407 5.66821 19.2801L5.85221 15.7961L5.27221 16.4481L4.65354 20.1627C4.61005 20.4244 4.46438 20.6581 4.24859 20.8124C4.0328 20.9667 3.76455 21.0289 3.50287 20.9854C3.24119 20.9419 3.00751 20.7963 2.85323 20.5805C2.69895 20.3647 2.63671 20.0964 2.68021 19.8347L3.34687 15.8347C3.37813 15.6488 3.46133 15.4755 3.58687 15.3347L6.25354 12.3347L6.25487 12.3361Z"
    fill="currentColor" />
  <path
    d="M6.00034 22.8254V20.9347L7.60567 22.7681L7.95367 23.4667C7.91751 23.5775 7.86346 23.6815 7.79367 23.7747L4.46034 28.1081C4.29873 28.3185 4.06016 28.4561 3.79711 28.4906C3.53406 28.5251 3.26808 28.4537 3.05767 28.2921C2.84727 28.1305 2.70967 27.8919 2.67517 27.6289C2.64066 27.3658 2.71206 27.0998 2.87367 26.8894L6.00034 22.8254ZM11.627 17.2054L10.9683 16.5467L11.2417 14.0894L11.2497 14.0001L12.7483 15.4987H14.6683C14.9336 15.4987 15.1879 15.6041 15.3754 15.7916C15.563 15.9792 15.6683 16.2335 15.6683 16.4987C15.6683 16.764 15.563 17.0183 15.3754 17.2059C15.1879 17.3934 14.9336 17.4987 14.6683 17.4987H12.3337C12.2022 17.4988 12.0719 17.4729 11.9505 17.4226C11.829 17.3723 11.7186 17.2985 11.6257 17.2054H11.627Z"
    fill="currentColor" />
  <path
    d="M21.6682 16.8191C22.4046 16.8191 23.0015 16.2221 23.0015 15.4858C23.0015 14.7494 22.4046 14.1524 21.6682 14.1524C20.9318 14.1524 20.3349 14.7494 20.3349 15.4858C20.3349 16.2221 20.9318 16.8191 21.6682 16.8191Z"
    fill="currentColor" />
  <path fill-rule="evenodd" clip-rule="evenodd"
    d="M19.6826 5.76072C19.6826 5.76071 19.6826 5.76072 19.6826 5.76072L18.3748 5.48575C18.4309 5.12672 18.5455 4.77811 18.7151 4.45412C18.9649 3.97695 19.3266 3.56742 19.7692 3.26057C20.2119 2.95373 20.7223 2.75872 21.2568 2.69224C21.7912 2.62576 22.3339 2.68978 22.8382 2.87883L28.1715 4.87883C28.807 5.11706 29.3547 5.54361 29.7413 6.10142C30.1279 6.65923 30.3349 7.32175 30.3349 8.00041L28.9812 7.71581C28.9812 7.71578 28.9812 7.71583 28.9812 7.71581L19.6826 5.76072ZM21.4213 4.01538C21.742 3.97549 22.0676 4.01389 22.3701 4.1273L27.7035 6.1273C28.0848 6.27023 28.4134 6.52619 28.6454 6.86089C28.8229 7.11701 28.9373 7.40992 28.9812 7.71581L19.6826 5.76072C19.7115 5.52092 19.7837 5.28766 19.8963 5.07251C20.0462 4.7862 20.2632 4.54048 20.5288 4.35638C20.7944 4.17227 21.1007 4.05527 21.4213 4.01538Z"
    fill="currentColor" />
  <path
    d="M13.0015 19.3334V22.1524C13.0015 23.0365 13.3527 23.8843 13.9779 24.5094C14.603 25.1346 15.4508 25.4857 16.3349 25.4857H18.3748C18.4309 25.8448 18.5455 26.1934 18.7151 26.5174C18.9649 26.9945 19.3266 27.4041 19.7692 27.7109C20.2119 28.0178 20.7223 28.2128 21.2568 28.2793C21.7912 28.3457 22.3339 28.2817 22.8382 28.0927L28.1715 26.0927C28.807 25.8544 29.3547 25.4279 29.7413 24.8701C30.1279 24.3123 30.3349 23.6497 30.3349 22.9711V8.00041L28.9812 7.71581C28.9947 7.80963 29.0016 7.90475 29.0015 8.00033V22.9711C29.0016 23.3783 28.8773 23.7759 28.6454 24.1106C28.4134 24.4453 28.0849 24.7012 27.7035 24.8442L22.3702 26.8442C22.0676 26.9576 21.742 26.996 21.4213 26.9561C21.1007 26.9162 20.7944 26.7992 20.5288 26.6151C20.2632 26.431 20.0462 26.1853 19.8963 25.899C19.7464 25.6127 19.6682 25.2943 19.6682 24.9712V6.00041C19.6682 5.92011 19.673 5.84001 19.6826 5.76072L18.3748 5.48575H16.3349C15.4508 5.48575 14.603 5.83694 13.9779 6.46206C13.3527 7.08718 13.0015 7.93503 13.0015 8.81908V14.0001H14.3349V8.81908C14.3349 8.28865 14.5456 7.77994 14.9207 7.40487C15.2957 7.02979 15.8044 6.81908 16.3349 6.81908H18.3349V24.1524H16.3349C15.8044 24.1524 15.2957 23.9417 14.9207 23.5666C14.5456 23.1916 14.3349 22.6828 14.3349 22.1524V19.3334H13.0015Z"
    fill="currentColor" />
</svg>
  