<svg width="24" height="24" viewBox="0 0 24 24" fill="none" xmlns="http://www.w3.org/2000/svg">
<path fill-rule="evenodd" clip-rule="evenodd" d="M6.51171 4.43045C6.8262 4.16088 7.29968 4.1973 7.56924 4.5118L13.5692 11.5118C13.81 11.7927 13.81 12.2071 13.5692 12.488L7.56924 19.488C7.29968 19.8025 6.8262 19.8389 6.51171 19.5693C6.19721 19.2998 6.16079 18.8263 6.43036 18.5118L12.012 11.9999L6.43036 5.48799C6.16079 5.17349 6.19721 4.70002 6.51171 4.43045ZM10.5119 4.43055C10.8264 4.16099 11.2999 4.19741 11.5694 4.5119L17.5694 11.5119C17.8102 11.7928 17.8102 12.2072 17.5694 12.4881L11.5694 19.4881C11.2999 19.8026 10.8264 19.839 10.5119 19.5694C10.1974 19.2999 10.161 18.8264 10.4306 18.5119L16.0122 12L10.4306 5.48809C10.161 5.17359 10.1974 4.70012 10.5119 4.43055Z" fill="currentColor"/>
</svg>
