<svg width="24" height="24" viewBox="0 0 24 24" fill="none" xmlns="http://www.w3.org/2000/svg">
<path fill-rule="evenodd" clip-rule="evenodd" d="M17.4879 4.43045C17.8024 4.70002 17.8388 5.17349 17.5693 5.48799L11.9876 11.9999L17.5693 18.5118C17.8388 18.8263 17.8024 19.2998 17.4879 19.5693C17.1734 19.8389 16.6999 19.8025 16.4304 19.488L10.4304 12.488C10.1896 12.2071 10.1896 11.7927 10.4304 11.5118L16.4304 4.5118C16.6999 4.1973 17.1734 4.16088 17.4879 4.43045ZM13.488 4.43055C13.8025 4.70012 13.8389 5.17359 13.5694 5.48809L7.98772 12L13.5694 18.5119C13.8389 18.8264 13.8025 19.2999 13.488 19.5694C13.1735 19.839 12.7 19.8026 12.4305 19.4881L6.43047 12.4881C6.18972 12.2072 6.18972 11.7928 6.43047 11.5119L12.4305 4.5119C12.7 4.19741 13.1735 4.16098 13.488 4.43055Z" fill="currentColor"/>
</svg>
