<svg width="24" height="24" viewBox="0 0 24 24" fill="none" xmlns="http://www.w3.org/2000/svg">
<path fill-rule="evenodd" clip-rule="evenodd" d="M11.5119 6.43056C11.7928 6.18981 12.2072 6.18981 12.4881 6.43056L19.4881 12.4306C19.8026 12.7001 19.839 13.1736 19.5694 13.4881C19.2999 13.8026 18.8264 13.839 18.5119 13.5694L12 7.98781L5.48809 13.5694C5.1736 13.839 4.70012 13.8026 4.43056 13.4881C4.16099 13.1736 4.19741 12.7001 4.5119 12.4306L11.5119 6.43056ZM4.5119 16.4306L11.5119 10.4306C11.7928 10.1898 12.2072 10.1898 12.4881 10.4306L19.4881 16.4306C19.8026 16.7001 19.839 17.1736 19.5694 17.4881C19.2999 17.8026 18.8264 17.839 18.5119 17.5694L12 11.9878L5.48809 17.5694C5.1736 17.839 4.70012 17.8026 4.43056 17.4881C4.16099 17.1736 4.19741 16.7001 4.5119 16.4306Z" fill="currentColor"/>
</svg>
