<svg width="24" height="24" viewBox="0 0 24 24" fill="none" xmlns="http://www.w3.org/2000/svg">
<path d="M2.68937 6.70451C2.5262 6.32379 2.08529 6.14742 1.70457 6.31059C1.32385 6.47376 1.14748 6.91467 1.31065 7.29539L2.68937 6.70451ZM9.04146 13.7377C9.26737 13.3906 9.16905 12.926 8.82186 12.7001C8.47467 12.4742 8.01009 12.5725 7.78418 12.9197L9.04146 13.7377ZM6.37137 15.091C6.14546 15.4381 6.24378 15.9026 6.59097 16.1285C6.93816 16.3544 7.40274 16.2562 7.62865 15.909L6.37137 15.091ZM22.6894 7.29539C22.8525 6.91467 22.6762 6.47376 22.2954 6.31059C21.9147 6.14742 21.4738 6.32379 21.3106 6.70451L22.6894 7.29539ZM19.9697 13.1592C20.2626 13.4521 20.7374 13.4521 21.0303 13.1592C21.3232 12.8663 21.3232 12.3914 21.0303 12.0985L19.9697 13.1592ZM11.25 16.5C11.25 16.9142 11.5858 17.25 12 17.25C12.4142 17.25 12.75 16.9142 12.75 16.5H11.25ZM16.3714 15.909C16.5973 16.2562 17.0619 16.3544 17.409 16.1285C17.7562 15.9026 17.8545 15.4381 17.6286 15.091L16.3714 15.909ZM5.53034 11.6592C5.82323 11.3663 5.82323 10.8914 5.53034 10.5985C5.23745 10.3056 4.76257 10.3056 4.46968 10.5985L5.53034 11.6592ZM2.96968 12.0985C2.67679 12.3914 2.67679 12.8663 2.96968 13.1592C3.26257 13.4521 3.73745 13.4521 4.03034 13.1592L2.96968 12.0985ZM12 13.25C8.77612 13.25 6.46134 11.6446 4.92461 9.98961C4.15646 9.16238 3.59326 8.33279 3.2226 7.71009C3.0377 7.39945 2.90188 7.14227 2.81341 6.96532C2.7692 6.87691 2.7369 6.8087 2.71628 6.76406C2.70598 6.74175 2.6986 6.72535 2.69412 6.71528C2.69188 6.71025 2.69016 6.70632 2.68937 6.70451C2.68935 6.70447 2.6894 6.70459 2.68937 6.70451C2.68947 6.70474 2.68937 6.70451 2.00001 6.99995C1.31065 7.29539 1.3105 7.29505 1.31065 7.29539C1.31071 7.29554 1.31115 7.29655 1.31128 7.29685C1.31153 7.29744 1.31184 7.29815 1.31219 7.29895C1.31288 7.30057 1.31377 7.30261 1.31484 7.30507C1.31699 7.30998 1.31989 7.31657 1.32354 7.32478C1.33084 7.3412 1.34116 7.3641 1.35454 7.39306C1.38128 7.45097 1.42027 7.53315 1.47177 7.63614C1.5747 7.84201 1.72795 8.1317 1.93367 8.47731C2.34426 9.16711 2.96856 10.0876 3.82541 11.0103C5.53868 12.8554 8.2239 14.75 12 14.75V13.25ZM15.3125 12.6308C14.3421 13.0128 13.2417 13.25 12 13.25V14.75C13.4382 14.75 14.7246 14.4742 15.8619 14.0266L15.3125 12.6308ZM7.78418 12.9197L6.37137 15.091L7.62865 15.909L9.04146 13.7377L7.78418 12.9197ZM22 6.99995C21.3106 6.70451 21.3105 6.70465 21.3106 6.70451C21.3107 6.70435 21.3111 6.70344 21.3111 6.70355C21.311 6.70375 21.3107 6.70447 21.3101 6.70571C21.309 6.70818 21.307 6.7127 21.3041 6.71919C21.2983 6.73218 21.2889 6.75304 21.2758 6.7812C21.2495 6.83752 21.2086 6.9229 21.1526 7.03262C21.0406 7.25222 20.869 7.56826 20.6354 7.94315C20.1669 8.69511 19.4563 9.67192 18.4867 10.582L19.5133 11.6757C20.6023 10.6535 21.3917 9.56582 21.9085 8.73641C22.1676 8.32063 22.36 7.96675 22.4889 7.7141C22.5533 7.5877 22.602 7.48638 22.6353 7.41502C22.6519 7.37934 22.6647 7.35113 22.6737 7.33099C22.6782 7.32092 22.6818 7.31287 22.6844 7.30691C22.6857 7.30393 22.6867 7.30148 22.6876 7.29955C22.688 7.29859 22.6883 7.29776 22.6886 7.29707C22.6888 7.29672 22.6893 7.29567 22.6894 7.29539C22.6894 7.29546 22.6895 7.29525 22.6894 7.29539C22.6895 7.29522 22.6894 7.29539 22 6.99995ZM18.4867 10.582C17.6277 11.3882 16.5739 12.1343 15.3125 12.6308L15.8619 14.0266C17.3355 13.4466 18.5466 12.583 19.5133 11.6757L18.4867 10.582ZM18.4697 11.6592L19.9697 13.1592L21.0303 12.0985L19.5303 10.5985L18.4697 11.6592ZM11.25 14V16.5H12.75V14H11.25ZM14.9586 13.7377L16.3714 15.909L17.6286 15.091L16.2158 12.9197L14.9586 13.7377ZM4.46968 10.5985L2.96968 12.0985L4.03034 13.1592L5.53034 11.6592L4.46968 10.5985Z" fill="currentColor"/>
</svg>
