<svg width="24" height="24" viewBox="0 0 24 24" fill="none" xmlns="http://www.w3.org/2000/svg">
<path d="M7.03774 7.60338C8.80568 5.83434 11.6719 5.83434 13.4398 7.60338C15.208 9.37263 15.208 12.2413 13.4398 14.0106L12.2223 15.2289C11.9731 15.4782 11.9733 15.8824 12.2226 16.1316C12.472 16.3807 12.8761 16.3806 13.1253 16.1313L14.3428 14.913C16.6091 12.6453 16.6091 8.9687 14.3428 6.70097C12.0763 4.43301 8.40131 4.43301 6.13477 6.70097L3.69974 9.13751C1.43342 11.4052 1.43342 15.0818 3.69974 17.3495C4.7505 18.401 6.10554 18.9653 7.48098 19.0416C7.83296 19.0611 8.13411 18.7916 8.15362 18.4396C8.17313 18.0876 7.90361 17.7864 7.55163 17.7669C6.47792 17.7074 5.42291 17.2678 4.60271 16.4471C2.83456 14.6779 2.83456 11.8092 4.60271 10.0399L7.03774 7.60338Z" fill="currentColor"/>
<path d="M16.519 5.85204C16.167 5.83253 15.8659 6.10205 15.8464 6.45404C15.8269 6.80602 16.0964 7.10717 16.4484 7.12668C17.5221 7.1862 18.5771 7.62577 19.3973 8.44648C21.1654 10.2157 21.1654 13.0844 19.3973 14.8537L16.9623 17.2902C15.1943 19.0593 12.3281 19.0593 10.5602 17.2902C8.792 15.521 8.792 12.6523 10.5602 10.883L11.7777 9.66475C12.0269 9.4154 12.0267 9.01125 11.7774 8.76206C11.528 8.51287 11.1239 8.51299 10.8747 8.76234L9.65719 9.98061C7.39087 12.2484 7.39087 15.9249 9.65719 18.1926C11.9237 20.4606 15.5987 20.4606 17.8652 18.1926L20.3003 15.7561C22.5666 13.4884 22.5666 9.81181 20.3003 7.54407C19.2495 6.49265 17.8945 5.92828 16.519 5.85204Z" fill="currentColor"/>
</svg>
