<svg width="23" height="18" viewBox="0 0 23 18" fill="none" xmlns="http://www.w3.org/2000/svg">
<path fill-rule="evenodd" clip-rule="evenodd" d="M9.44358 0.25H13.5564C15.3942 0.249984 16.8498 0.249972 17.989 0.403135C19.1614 0.560763 20.1104 0.89288 20.8588 1.64124C21.6071 2.38961 21.9392 3.33856 22.0969 4.51098C22.25 5.65019 22.25 7.10583 22.25 8.94359V9.05641C22.25 10.8942 22.25 12.3498 22.0969 13.489C21.9392 14.6614 21.6071 15.6104 20.8588 16.3588C20.1104 17.1071 19.1614 17.4392 17.989 17.5969C16.8498 17.75 15.3942 17.75 13.5564 17.75H9.44359C7.60583 17.75 6.15019 17.75 5.01098 17.5969C3.83856 17.4392 2.88961 17.1071 2.14124 16.3588C1.39288 15.6104 1.06076 14.6614 0.903135 13.489C0.749972 12.3498 0.749984 10.8942 0.75 9.05642V8.94358C0.749984 7.10582 0.749972 5.65019 0.903135 4.51098C1.06076 3.33856 1.39288 2.38961 2.14124 1.64124C2.88961 0.89288 3.83856 0.560763 5.01098 0.403135C6.15019 0.249972 7.60582 0.249984 9.44358 0.25ZM5.21085 1.88976C4.20476 2.02502 3.62511 2.27869 3.2019 2.7019C2.77869 3.12511 2.52502 3.70476 2.38976 4.71085C2.25159 5.73851 2.25 7.09318 2.25 9C2.25 10.9068 2.25159 12.2615 2.38976 13.2892C2.52502 14.2952 2.77869 14.8749 3.2019 15.2981C3.62511 15.7213 4.20476 15.975 5.21085 16.1102C6.23851 16.2484 7.59318 16.25 9.5 16.25H13.5C15.4068 16.25 16.7615 16.2484 17.7892 16.1102C18.7952 15.975 19.3749 15.7213 19.7981 15.2981C20.2213 14.8749 20.475 14.2952 20.6102 13.2892C20.7484 12.2615 20.75 10.9068 20.75 9C20.75 7.09318 20.7484 5.73851 20.6102 4.71085C20.475 3.70476 20.2213 3.12511 19.7981 2.7019C19.3749 2.27869 18.7952 2.02502 17.7892 1.88976C16.7615 1.75159 15.4068 1.75 13.5 1.75H9.5C7.59318 1.75 6.23851 1.75159 5.21085 1.88976ZM4.92383 4.51986C5.18901 4.20165 5.66193 4.15866 5.98014 4.42383L8.13903 6.22291C9.07199 7.00038 9.71973 7.53842 10.2666 7.89013C10.7959 8.23059 11.1549 8.34488 11.5 8.34488C11.8451 8.34488 12.2041 8.23059 12.7334 7.89013C13.2803 7.53842 13.928 7.00038 14.861 6.22291L17.0199 4.42383C17.3381 4.15866 17.811 4.20165 18.0762 4.51986C18.3413 4.83807 18.2983 5.31099 17.9801 5.57617L15.7836 7.40658C14.8973 8.14523 14.1789 8.74392 13.5448 9.15172C12.8843 9.57653 12.2411 9.84488 11.5 9.84488C10.7589 9.84488 10.1157 9.57653 9.45518 9.15172C8.82112 8.74392 8.10272 8.14524 7.21636 7.40658L5.01986 5.57617C4.70165 5.31099 4.65866 4.83807 4.92383 4.51986Z" fill="#3E5F2C"/>
</svg>
