<svg width="28" height="28" viewBox="0 0 28 28" fill="none" xmlns="http://www.w3.org/2000/svg">
  <path fill-rule="evenodd" clip-rule="evenodd"
    d="M21 3.2085C20.5167 3.2085 20.125 2.81675 20.125 2.3335C20.125 1.85025 20.5167 1.4585 21 1.4585H25.6666C26.0205 1.4585 26.3396 1.67168 26.475 1.99865C26.6105 2.32561 26.5356 2.70197 26.2854 2.95221L23.1124 6.12516H25.6666C26.1499 6.12516 26.5416 6.51691 26.5416 7.00016C26.5416 7.48341 26.1499 7.87516 25.6666 7.87516H21C20.6461 7.87516 20.327 7.66198 20.1916 7.33501C20.0562 7.00805 20.131 6.63169 20.3813 6.38144L23.5542 3.2085H21ZM15.75 10.2085C15.2667 10.2085 14.875 9.81674 14.875 9.3335C14.875 8.85025 15.2667 8.4585 15.75 8.4585H19.25C19.6039 8.4585 19.9229 8.67168 20.0584 8.99865C20.1938 9.32561 20.1189 9.70197 19.8687 9.95221L17.8624 11.9585H19.25C19.7332 11.9585 20.125 12.3502 20.125 12.8335C20.125 13.3167 19.7332 13.7085 19.25 13.7085H15.75C15.3961 13.7085 15.077 13.4953 14.9416 13.1683C14.8062 12.8414 14.881 12.465 15.1313 12.2148L17.1375 10.2085H15.75Z"
    fill="currentColor" />
  <path
    d="M14 25.6668C20.4433 25.6668 25.6666 20.4435 25.6666 14.0002C25.6666 13.4604 24.8576 13.3711 24.5784 13.8331C23.2504 16.0309 20.8384 17.5002 18.0833 17.5002C13.8952 17.5002 10.5 14.105 10.5 9.91683C10.5 7.16169 11.9692 4.74972 14.167 3.42172C14.629 3.14254 14.5398 2.3335 14 2.3335C7.55666 2.3335 2.33331 7.55684 2.33331 14.0002C2.33331 20.4435 7.55666 25.6668 14 25.6668Z"
    fill="currentColor" />
</svg>
  