<svg width="24" height="24" viewBox="0 0 24 24" fill="none" xmlns="http://www.w3.org/2000/svg">
<path fill-rule="evenodd" clip-rule="evenodd" d="M9.94531 1.25H14.0551C15.4227 1.24998 16.525 1.24996 17.3919 1.36652C18.292 1.48754 19.0499 1.74643 19.6518 2.34835C20.2538 2.95027 20.5126 3.70814 20.6337 4.60825C20.7502 5.47522 20.7502 6.57754 20.7502 7.94513V16.0549C20.7502 17.4225 20.7502 18.5248 20.6337 19.3918C20.5126 20.2919 20.2538 21.0497 19.6518 21.6517C19.0499 22.2536 18.292 22.5125 17.3919 22.6335C16.525 22.75 15.4226 22.75 14.0551 22.75H9.94532C8.57773 22.75 7.4754 22.75 6.60844 22.6335C5.70833 22.5125 4.95045 22.2536 4.34854 21.6517C3.74662 21.0497 3.48773 20.2919 3.36671 19.3918C3.32801 19.1039 3.30216 18.7902 3.2849 18.4494C3.24582 18.326 3.23821 18.1912 3.26895 18.0568C3.25016 17.4649 3.25017 16.7991 3.25019 16.0549V7.94513C3.25017 6.57754 3.25015 5.47522 3.36671 4.60825C3.48773 3.70814 3.74662 2.95027 4.34854 2.34835C4.95045 1.74643 5.70833 1.48754 6.60843 1.36652C7.4754 1.24996 8.57772 1.24998 9.94531 1.25ZM4.77694 18.2491C4.79214 18.6029 4.81597 18.914 4.85333 19.1919C4.95199 19.9257 5.13243 20.3142 5.4092 20.591C5.68596 20.8678 6.07453 21.0482 6.80831 21.1469C7.56366 21.2484 8.56477 21.25 10.0002 21.25H14.0002C15.4356 21.25 16.4367 21.2484 17.1921 21.1469C17.9258 21.0482 18.3144 20.8678 18.5912 20.591C18.8679 20.3142 19.0484 19.9257 19.147 19.1919C19.2299 18.5756 19.2462 17.7958 19.2494 16.75H7.89796C6.91971 16.75 6.5777 16.7564 6.31562 16.8267C5.5963 17.0194 5.02286 17.5541 4.77694 18.2491ZM19.2502 15.25V8C19.2502 6.56458 19.2486 5.56347 19.147 4.80812C19.0484 4.07435 18.8679 3.68577 18.5912 3.40901C18.3144 3.13225 17.9258 2.9518 17.1921 2.85315C16.4367 2.75159 15.4356 2.75 14.0002 2.75H10.0002C9.09237 2.75 8.35827 2.75064 7.75019 2.7768V15.25C7.7608 15.25 7.77146 15.25 7.78217 15.25C7.8202 15.25 7.85879 15.25 7.89796 15.25H19.2502ZM6.25019 15.3114C6.13768 15.3284 6.03068 15.3501 5.92739 15.3778C5.49941 15.4925 5.10242 15.6798 4.75019 15.9259V8C4.75019 6.56458 4.75178 5.56347 4.85333 4.80812C4.95199 4.07435 5.13243 3.68577 5.4092 3.40901C5.60551 3.2127 5.85807 3.06485 6.25019 2.96027V15.3114Z" fill="currentColor"/>
</svg>
