<svg width="24" height="24" viewBox="0 0 24 24" fill="none" xmlns="http://www.w3.org/2000/svg">
<path fill-rule="evenodd" clip-rule="evenodd" d="M4.48268 3.79349C5.70002 2.58307 7.70439 2.79853 8.7237 4.16011L9.98469 5.84451C10.8141 6.9524 10.7409 8.50081 9.75639 9.47972L9.51762 9.71714C9.50719 9.74743 9.4819 9.84264 9.50997 10.0236C9.57319 10.4311 9.91347 11.2955 11.342 12.7159C12.77 14.1358 13.6405 14.4758 14.0538 14.5391C14.2411 14.5679 14.3391 14.5411 14.3694 14.5305L14.7774 14.1248C15.6526 13.2546 16.9975 13.0919 18.0811 13.681L19.9916 14.7196C21.6275 15.6089 22.0409 17.8326 20.7005 19.1653L19.28 20.5778C18.8324 21.0228 18.2305 21.3939 17.4959 21.4624C15.6869 21.631 11.4687 21.4158 7.03659 17.0089C2.89868 12.8945 2.10462 9.30649 2.00415 7.53866L2.75294 7.49611L2.00415 7.53866C1.95335 6.64475 2.37576 5.88845 2.91308 5.35418L4.48268 3.79349ZM7.52291 5.05905C7.01628 4.38231 6.072 4.3285 5.54032 4.85717L3.97072 6.41786C3.6408 6.7459 3.48206 7.10744 3.50173 7.45355C3.58156 8.85815 4.22286 12.0958 8.09423 15.9452C12.1557 19.9836 15.9069 20.104 17.3567 19.9689C17.6529 19.9413 17.9475 19.7874 18.2224 19.5141L19.6429 18.1016C20.2204 17.5275 20.093 16.482 19.2752 16.0374L17.3647 14.9988C16.8371 14.7121 16.219 14.8067 15.835 15.1885L15.3796 15.6414L14.8508 15.1095C15.3796 15.6414 15.3789 15.6421 15.3782 15.6428L15.3767 15.6442L15.3736 15.6472L15.3671 15.6535L15.3525 15.6671C15.342 15.6767 15.3299 15.6872 15.3164 15.6984C15.2892 15.7209 15.2558 15.7464 15.2159 15.7732C15.1358 15.8268 15.0301 15.8851 14.8972 15.9346C14.6264 16.0355 14.2692 16.0897 13.8264 16.0218C12.9596 15.8888 11.8114 15.2979 10.2844 13.7796C8.75787 12.2618 8.16194 11.1188 8.0277 10.2535C7.95906 9.8111 8.01381 9.4538 8.11594 9.18274C8.16599 9.0499 8.22497 8.94427 8.2791 8.86438C8.3061 8.82454 8.33179 8.79123 8.35446 8.76417C8.3658 8.75064 8.3764 8.73866 8.38604 8.72819L8.39977 8.7136L8.40606 8.70714L8.40905 8.70412L8.41051 8.70266C8.41122 8.70194 8.41194 8.70123 8.94076 9.23307L8.41194 8.70123L8.69875 8.41605C9.12735 7.98988 9.18739 7.28243 8.7839 6.74346L7.52291 5.05905Z" fill="currentColor"/>
</svg>
