<svg width="12" height="20" viewBox="0 0 12 20" fill="none" xmlns="http://www.w3.org/2000/svg">
<path d="M1.615 20C1.155 20 0.771 19.846 0.463 19.538C0.154333 19.2293 0 18.845 0 18.385V1.615C0 1.155 0.154333 0.771 0.463 0.463C0.771 0.154333 1.155 0 1.615 0H10.385C10.845 0 11.229 0.154333 11.537 0.463C11.8457 0.771 12 1.155 12 1.615V18.385C12 18.845 11.846 19.229 11.538 19.537C11.2293 19.8457 10.845 20 10.385 20H1.615ZM6 18.038C6.20667 18.038 6.38667 17.9613 6.54 17.808C6.69333 17.6547 6.77 17.475 6.77 17.269C6.77 17.0623 6.69333 16.8823 6.54 16.729C6.38667 16.5763 6.20667 16.5 6 16.5C5.79333 16.5 5.61333 16.5767 5.46 16.73C5.30667 16.8833 5.23 17.0633 5.23 17.27C5.23 17.476 5.30667 17.6557 5.46 17.809C5.61333 17.9623 5.79333 18.038 6 18.038ZM1 14.539H11V3.5H1V14.539Z" fill="currentColor"/>
</svg>
