<svg width="24" height="24" viewBox="0 0 24 24" fill="none" xmlns="http://www.w3.org/2000/svg">
<path d="M1.2194 21.2203C0.926658 21.5134 0.926898 21.9883 1.21994 22.281C1.51298 22.5737 1.98786 22.5735 2.2806 22.2805L1.2194 21.2203ZM6.93383 17.6225C7.22657 17.3295 7.22633 16.8546 6.93329 16.5618C6.64024 16.2691 6.16537 16.2693 5.87263 16.5624L6.93383 17.6225ZM15.2088 5.23067L18.291 8.31609L19.3522 7.25597L16.27 4.17055L15.2088 5.23067ZM9.01897 18.6493L4.90229 14.5285L3.84109 15.5886L7.95777 19.7095L9.01897 18.6493ZM17.0532 14.0426L15.136 14.7629L15.6636 16.1671L17.5807 15.4468L17.0532 14.0426ZM8.78642 8.3902L9.48087 6.49479L8.07243 5.97875L7.37798 7.87416L8.78642 8.3902ZM5.79438 11.1469C6.50583 10.9507 7.04719 10.8129 7.48987 10.4942L6.61346 9.27687C6.44053 9.40138 6.21601 9.47469 5.3957 9.70085L5.79438 11.1469ZM7.37798 7.87416C7.08502 8.67373 6.99338 8.89194 6.85499 9.05432L7.99665 10.0272C8.35041 9.61216 8.5323 9.08378 8.78642 8.3902L7.37798 7.87416ZM7.48987 10.4942C7.67696 10.3595 7.84712 10.2027 7.99665 10.0272L6.85499 9.05432C6.7837 9.13798 6.7026 9.2127 6.61346 9.27687L7.48987 10.4942ZM15.136 14.7629C14.447 15.0218 13.9216 15.2075 13.51 15.5639L14.492 16.6979C14.6528 16.5586 14.8692 16.4656 15.6636 16.1671L15.136 14.7629ZM13.8537 18.1505C14.079 17.3317 14.1521 17.1073 14.2763 16.9342L13.0575 16.0598C12.7402 16.5021 12.6029 17.0423 12.4074 17.7526L13.8537 18.1505ZM13.51 15.5639C13.3403 15.7109 13.1884 15.8773 13.0575 16.0598L14.2763 16.9342C14.3387 16.8472 14.4111 16.7679 14.492 16.6979L13.51 15.5639ZM4.90229 14.5285C4.25615 13.8817 3.81799 13.4414 3.53366 13.0842C3.24835 12.7257 3.21889 12.5705 3.21845 12.5009L1.71848 12.5104C1.72215 13.0926 2.01127 13.5801 2.36002 14.0183C2.70976 14.4577 3.22115 14.968 3.84109 15.5886L4.90229 14.5285ZM5.3957 9.70085C4.55048 9.93391 3.85396 10.1247 3.33296 10.3339C2.81341 10.5424 2.32116 10.8236 2.03053 11.3282L3.33038 12.0768C3.365 12.0167 3.46693 11.8964 3.8918 11.7259C4.31523 11.5559 4.91337 11.3898 5.79438 11.1469L5.3957 9.70085ZM3.21845 12.5009C3.21751 12.352 3.25616 12.2057 3.33038 12.0768L2.03053 11.3282C1.82354 11.6876 1.71586 12.0956 1.71848 12.5104L3.21845 12.5009ZM7.95777 19.7095C8.58164 20.334 9.09464 20.8491 9.53647 21.201C9.977 21.5519 10.4679 21.8426 11.0541 21.8435L11.0564 20.3435C10.9869 20.3434 10.8314 20.3148 10.471 20.0277C10.1118 19.7416 9.66923 19.3003 9.01897 18.6493L7.95777 19.7095ZM12.4074 17.7526C12.1633 18.6401 11.9962 19.2428 11.8251 19.6692C11.6533 20.0971 11.5321 20.1991 11.4715 20.2337L12.215 21.5365C12.724 21.246 13.0073 20.7508 13.2171 20.2279C13.4276 19.7036 13.6194 19.002 13.8537 18.1505L12.4074 17.7526ZM11.0541 21.8435C11.4612 21.8441 11.8614 21.7383 12.215 21.5365L11.4715 20.2337C11.345 20.3059 11.2019 20.3437 11.0564 20.3435L11.0541 21.8435ZM18.291 8.31609C19.3545 9.38063 20.0903 10.1199 20.5417 10.7292C20.9853 11.3278 21.0363 11.6463 20.9821 11.8968L22.4482 12.2138C22.6381 11.3358 22.2882 10.5666 21.7469 9.83611C21.2135 9.11633 20.3805 8.28527 19.3522 7.25597L18.291 8.31609ZM17.5807 15.4468C18.9421 14.9353 20.044 14.5234 20.8271 14.0888C21.6218 13.6477 22.2583 13.092 22.4482 12.2138L20.9821 11.8968C20.928 12.1472 20.7501 12.4159 20.0991 12.7772C19.4365 13.145 18.4612 13.5136 17.0532 14.0426L17.5807 15.4468ZM16.27 4.17055C15.2341 3.13361 14.3981 2.29394 13.6746 1.75679C12.9408 1.21206 12.1675 0.859529 11.2857 1.05408L11.6088 2.51886C11.8586 2.46376 12.1777 2.51371 12.7804 2.96116C13.3933 3.4162 14.1376 4.15842 15.2088 5.23067L16.27 4.17055ZM9.48087 6.49479C10.0025 5.07116 10.3661 4.08444 10.7312 3.41356C11.0902 2.75379 11.359 2.57398 11.6088 2.51886L11.2857 1.05408C10.404 1.2486 9.8505 1.89373 9.41362 2.69659C8.98278 3.48834 8.57688 4.60195 8.07243 5.97875L9.48087 6.49479ZM2.2806 22.2805L6.93383 17.6225L5.87263 16.5624L1.2194 21.2203L2.2806 22.2805Z" fill="currentColor"/>
</svg>
