<svg width="24" height="24" viewBox="0 0 24 24" fill="none" xmlns="http://www.w3.org/2000/svg">
<path fill-rule="evenodd" clip-rule="evenodd" d="M4.52513 4.52513L4.52513 4.52513C4.11805 4.93221 3.83038 5.51828 3.66968 6.71351C3.50319 7.9519 3.5 9.60057 3.5 12C3.5 14.3994 3.50319 16.0481 3.66968 17.2865C3.83038 18.4817 4.11805 19.0678 4.5251 19.4748L4.52514 19.4749C4.93222 19.8819 5.51829 20.1696 6.71351 20.3303C7.9519 20.4968 9.60057 20.5 12 20.5C14.3994 20.5 16.0481 20.4968 17.2865 20.3303C18.4817 20.1696 19.0678 19.8819 19.4748 19.4749L19.4749 19.4748C19.8819 19.0678 20.1696 18.4817 20.3303 17.2865C20.4968 16.0481 20.5 14.3994 20.5 12C20.5 9.60057 20.4968 7.9519 20.3303 6.71351C20.1696 5.51829 19.8819 4.93222 19.4749 4.52514L19.4748 4.5251C19.0678 4.11805 18.4817 3.83038 17.2865 3.66968C16.0481 3.50319 14.3994 3.5 12 3.5C9.60057 3.5 7.9519 3.50319 6.71351 3.66968C5.51828 3.83038 4.93221 4.11805 4.52513 4.52513ZM3.46447 20.5355C4.92893 22 7.28595 22 12 22C16.714 22 19.0711 22 20.5355 20.5355C22 19.0711 22 16.714 22 12C22 7.28595 22 4.92893 20.5355 3.46447C19.0711 2 16.714 2 12 2C7.28595 2 4.92893 2 3.46447 3.46447C2 4.92893 2 7.28595 2 12C2 16.714 2 19.0711 3.46447 20.5355Z" fill="currentColor"/>
</svg>
