<svg width="24" height="24" viewBox="0 0 24 24" fill="none" xmlns="http://www.w3.org/2000/svg">
<path fill-rule="evenodd" clip-rule="evenodd" d="M10.3092 2.25002H13.6907C13.9071 2.24988 14.0956 2.24976 14.2736 2.27819C14.9769 2.39049 15.5855 2.82915 15.9145 3.46084C15.9977 3.62073 16.0572 3.79961 16.1255 4.00494L16.2371 4.33984C16.256 4.39653 16.2614 4.41258 16.266 4.42522C16.4411 4.90933 16.8952 5.23659 17.4098 5.24964C17.4233 5.24998 17.4399 5.25004 17.5 5.25004H20.5C20.9142 5.25004 21.25 5.58582 21.25 6.00004C21.25 6.41425 20.9142 6.75004 20.5 6.75004H3.49988C3.08566 6.75004 2.74988 6.41425 2.74988 6.00004C2.74988 5.58582 3.08566 5.25004 3.49988 5.25004H6.49996C6.56001 5.25004 6.57658 5.24998 6.59011 5.24964C7.10476 5.23659 7.55878 4.90936 7.7339 4.42524C7.73851 4.41251 7.7438 4.39681 7.76279 4.33984L7.8744 4.00496C7.94269 3.79964 8.0022 3.62073 8.08546 3.46084C8.41441 2.82915 9.02301 2.39049 9.72631 2.27819C9.90433 2.24976 10.0928 2.24988 10.3092 2.25002ZM9.00803 5.25004C9.05954 5.14902 9.10518 5.04404 9.14445 4.93548C9.15638 4.90251 9.16807 4.86742 9.1831 4.82234L9.2829 4.52292C9.37407 4.24941 9.39506 4.19363 9.41589 4.15364C9.52554 3.94307 9.7284 3.79686 9.96284 3.75942C10.0074 3.75231 10.0669 3.75004 10.3552 3.75004H13.6447C13.933 3.75004 13.9926 3.75231 14.0371 3.75942C14.2715 3.79686 14.4744 3.94307 14.584 4.15364C14.6049 4.19363 14.6258 4.2494 14.717 4.52292L14.8168 4.82216L14.8555 4.9355C14.8947 5.04405 14.9404 5.14902 14.9919 5.25004H9.00803Z" fill="currentColor"/>
<path d="M5.91497 8.45015C5.88741 8.03685 5.53004 7.72415 5.11674 7.7517C4.70344 7.77925 4.39074 8.13663 4.41829 8.54993L4.88174 15.5017C4.96723 16.7844 5.03629 17.8205 5.19827 18.6336C5.36667 19.4789 5.65309 20.185 6.24468 20.7385C6.83628 21.2919 7.55982 21.5308 8.41447 21.6425C9.2365 21.7501 10.2749 21.7501 11.5605 21.75H12.4394C13.7249 21.7501 14.7634 21.7501 15.5854 21.6425C16.4401 21.5308 17.1636 21.2919 17.7552 20.7385C18.3468 20.185 18.6333 19.4789 18.8017 18.6336C18.9636 17.8206 19.0327 16.7844 19.1182 15.5017L19.5816 8.54993C19.6092 8.13663 19.2965 7.77925 18.8832 7.7517C18.4699 7.72415 18.1125 8.03685 18.085 8.45015L17.625 15.3493C17.5352 16.6971 17.4711 17.6349 17.3306 18.3406C17.1942 19.025 17.0039 19.3873 16.7305 19.6431C16.4571 19.8989 16.0829 20.0647 15.3909 20.1552C14.6775 20.2485 13.7375 20.25 12.3866 20.25H11.6133C10.2624 20.25 9.32243 20.2485 8.60903 20.1552C7.91703 20.0647 7.54287 19.8989 7.26946 19.6431C6.99604 19.3873 6.80571 19.025 6.66936 18.3406C6.52879 17.6349 6.46477 16.6971 6.37491 15.3493L5.91497 8.45015Z" fill="currentColor"/>
<path d="M9.42534 10.2538C9.8375 10.2125 10.205 10.5133 10.2462 10.9254L10.7462 15.9254C10.7875 16.3376 10.4868 16.7051 10.0746 16.7463C9.66244 16.7875 9.29491 16.4868 9.25369 16.0747L8.75369 11.0747C8.71248 10.6625 9.01318 10.295 9.42534 10.2538Z" fill="currentColor"/>
<path d="M14.5746 10.2538C14.9868 10.295 15.2875 10.6625 15.2462 11.0747L14.7462 16.0747C14.705 16.4868 14.3375 16.7875 13.9253 16.7463C13.5132 16.7051 13.2125 16.3376 13.2537 15.9254L13.7537 10.9254C13.7949 10.5133 14.1624 10.2125 14.5746 10.2538Z" fill="currentColor"/>
</svg>
